
<svg width="450" height="300" xmlns="http://www.w3.org/2000/svg" role="img" aria-label="GitHub language stats donut chart">
  <title>GitHub Language Stats Donut Chart for Akhilesh2220</title>
  <g transform="translate(0,0)">
    <path d="M 265.3730813693761 183.0007893138229 A 120 120 0 0 0 157.53486234351763 30.236792588607415 L 153.7674311717588 90.11839629430371 A 60 60 0 0 1 207.68654068468805 166.50039465691145 Z" fill="#005f73" />
<path d="M 135.3844063691884 269.1066094841885 A 120 120 0 0 0 263.07328224187484 190.18000551330624 L 206.53664112093742 170.09000275665312 A 60 60 0 0 1 142.6922031845942 209.55330474209424 Z" fill="#0a9396" />
<path d="M 36.480791615129775 188.90230491465007 A 120 120 0 0 0 127.93448101571681 267.9538590803804 L 138.9672405078584 208.9769295401902 A 60 60 0 0 1 93.24039580756488 169.45115245732504 Z" fill="#94d2bd" />
<path d="M 59.78201975814383 70.87531332712874 A 120 120 0 0 0 34.262099905402096 181.69761003124484 L 92.13104995270105 165.84880501562242 A 60 60 0 0 1 104.89100987907192 110.43765666356437 Z" fill="#e9d8a6" />
<path d="M 131.74794332654778 31.396195561908357 A 120 120 0 0 0 64.9283245175975 65.36661397169082 L 107.46416225879875 107.6833069858454 A 60 60 0 0 1 140.8739716632739 90.69809778095419 Z" fill="#ee9b00" />
<path d="M 149.99999999999997 30 A 120 120 0 0 0 139.23115408992803 30.484176956500335 L 144.615577044964 90.24208847825017 A 60 60 0 0 1 150 90 Z" fill="#ca6702" />
    <circle cx="150" cy="150" r="60" fill="white" />
  </g>
  <g transform="translate(315, 0)">
    
      <circle cx="7.5" cy="93.75" r="6" fill="#005f73" />
      <text x="22.5" y="97.5" font-family="sans-serif" font-size="12" fill="#333" dominant-baseline="middle">
        HTML — 29.4%
      </text>
    

      <circle cx="7.5" cy="116.25" r="6" fill="#0a9396" />
      <text x="22.5" y="120" font-family="sans-serif" font-size="12" fill="#333" dominant-baseline="middle">
        Python — 22.5%
      </text>
    

      <circle cx="7.5" cy="138.75" r="6" fill="#94d2bd" />
      <text x="22.5" y="142.5" font-family="sans-serif" font-size="12" fill="#333" dominant-baseline="middle">
        CSS — 17.8%
      </text>
    

      <circle cx="7.5" cy="161.25" r="6" fill="#e9d8a6" />
      <text x="22.5" y="165" font-family="sans-serif" font-size="12" fill="#333" dominant-baseline="middle">
        JavaScript — 16.7%
      </text>
    

      <circle cx="7.5" cy="183.75" r="6" fill="#ee9b00" />
      <text x="22.5" y="187.5" font-family="sans-serif" font-size="12" fill="#333" dominant-baseline="middle">
        Go — 11.1%
      </text>
    

      <circle cx="7.5" cy="206.25" r="6" fill="#ca6702" />
      <text x="22.5" y="210" font-family="sans-serif" font-size="12" fill="#333" dominant-baseline="middle">
        Shell — 2.4%
      </text>
    
  </g>
</svg>
