
<svg width="450" height="300" xmlns="http://www.w3.org/2000/svg" role="img" aria-label="GitHub language stats donut chart">
  <title>GitHub Language Stats Donut Chart for Akhilesh2220</title>
  <g transform="translate(0,0)">
    <path d="M 269.91278322553154 154.57432171001207 A 120 120 0 0 0 157.53486234351763 30.236792588607415 L 153.7674311717588 90.11839629430371 A 60 60 0 0 1 209.95639161276577 152.28716085500602 Z" fill="#005f73" />
<path d="M 168.36375673515033 268.58656095263166 A 120 120 0 0 0 269.38893870263985 162.09468128795885 L 209.69446935131992 156.04734064397942 A 60 60 0 0 1 159.18187836757517 209.29328047631583 Z" fill="#0a9396" />
<path d="M 46.162439157953386 210.14782588235641 A 120 120 0 0 0 160.8814082846244 269.5056272890248 L 155.4407041423122 209.7528136445124 A 60 60 0 0 1 98.08121957897669 180.0739129411782 Z" fill="#94d2bd" />
<path d="M 35.19385681094242 115.07795129071597 A 120 120 0 0 0 42.590625629128795 203.50912349551277 L 96.2953128145644 176.75456174775638 A 60 60 0 0 1 92.5969284054712 132.538975645358 Z" fill="#e9d8a6" />
<path d="M 82.75929754291448 50.60841115528089 A 120 120 0 0 0 37.61317409104109 107.93812460066289 L 93.80658704552054 128.96906230033144 A 60 60 0 0 1 116.37964877145724 100.30420557764045 Z" fill="#ee9b00" />
<path d="M 150.00000000000009 30 A 120 120 0 0 0 89.1328312099399 46.58245911122073 L 119.56641560496995 98.29122955561036 A 60 60 0 0 1 150.00000000000003 90 Z" fill="#ca6702" />
    <circle cx="150" cy="150" r="60" fill="#0E1117" />
  </g>
  <g transform="translate(315, 0)">
    
      <circle cx="7.5" cy="93.75" r="6" fill="#005f73" />
      <text x="22.5" y="97.5" font-family="sans-serif" font-size="12" fill="white" dominant-baseline="middle">
        JavaScript — 25.6%
      </text>
    

      <circle cx="7.5" cy="116.25" r="6" fill="#0a9396" />
      <text x="22.5" y="120" font-family="sans-serif" font-size="12" fill="white" dominant-baseline="middle">
        Python — 21.9%
      </text>
    

      <circle cx="7.5" cy="138.75" r="6" fill="#94d2bd" />
      <text x="22.5" y="142.5" font-family="sans-serif" font-size="12" fill="white" dominant-baseline="middle">
        CSS — 19.1%
      </text>
    

      <circle cx="7.5" cy="161.25" r="6" fill="#e9d8a6" />
      <text x="22.5" y="165" font-family="sans-serif" font-size="12" fill="white" dominant-baseline="middle">
        HTML — 13.1%
      </text>
    

      <circle cx="7.5" cy="183.75" r="6" fill="#ee9b00" />
      <text x="22.5" y="187.5" font-family="sans-serif" font-size="12" fill="white" dominant-baseline="middle">
        Go — 10.8%
      </text>
    

      <circle cx="7.5" cy="206.25" r="6" fill="#ca6702" />
      <text x="22.5" y="210" font-family="sans-serif" font-size="12" fill="white" dominant-baseline="middle">
        Shell — 9.5%
      </text>
    
  </g>
</svg>
