
<svg width="450" height="300" xmlns="http://www.w3.org/2000/svg" role="img" aria-label="GitHub language stats donut chart">
  <title>GitHub Language Stats Donut Chart for Akhilesh2220</title>
  <g transform="translate(0,0)">
    <path d="M 265.3762702928412 182.9896385750625 A 120 120 0 0 0 157.53486234351763 30.236792588607415 L 153.7674311717588 90.11839629430371 A 60 60 0 0 1 207.6881351464206 166.49481928753124 Z" fill="#005f73" />
<path d="M 135.40472121808278 269.1091005644746 A 120 120 0 0 0 263.0771650334078 190.16907701214268 L 206.5385825167039 170.08453850607134 A 60 60 0 0 1 142.7023606090414 209.5545502822373 Z" fill="#0a9396" />
<path d="M 36.489703721184554 188.9283012562266 A 120 120 0 0 0 127.95459936167195 267.9576208250048 L 138.97729968083598 208.9788104125024 A 60 60 0 0 1 93.24485186059228 169.46415062811332 Z" fill="#94d2bd" />
<path d="M 59.78553796139501 70.87130205111991 A 120 120 0 0 0 34.26936210165792 181.72411467074892 L 92.13468105082896 165.86205733537446 A 60 60 0 0 1 104.8927689806975 110.43565102555996 Z" fill="#e9d8a6" />
<path d="M 131.7488897431292 31.396049920790816 A 120 120 0 0 0 64.93208764858286 65.36283152082879 L 107.46604382429143 107.6814157604144 A 60 60 0 0 1 140.8744448715646 90.6980249603954 Z" fill="#ee9b00" />
<path d="M 149.99999999999997 30 A 120 120 0 0 0 139.23210778385393 30.4840910287611 L 144.61605389192698 90.24204551438055 A 60 60 0 0 1 150 90 Z" fill="#ca6702" />
    <circle cx="150" cy="150" r="60" fill="#0E1117" />
  </g>
  <g transform="translate(315, 0)">
    
      <circle cx="7.5" cy="93.75" r="6" fill="#005f73" />
      <text x="22.5" y="97.5" font-family="sans-serif" font-size="12" fill="white" dominant-baseline="middle">
        HTML — 29.4%
      </text>
    

      <circle cx="7.5" cy="116.25" r="6" fill="#0a9396" />
      <text x="22.5" y="120" font-family="sans-serif" font-size="12" fill="white" dominant-baseline="middle">
        Python — 22.5%
      </text>
    

      <circle cx="7.5" cy="138.75" r="6" fill="#94d2bd" />
      <text x="22.5" y="142.5" font-family="sans-serif" font-size="12" fill="white" dominant-baseline="middle">
        CSS — 17.8%
      </text>
    

      <circle cx="7.5" cy="161.25" r="6" fill="#e9d8a6" />
      <text x="22.5" y="165" font-family="sans-serif" font-size="12" fill="white" dominant-baseline="middle">
        JavaScript — 16.7%
      </text>
    

      <circle cx="7.5" cy="183.75" r="6" fill="#ee9b00" />
      <text x="22.5" y="187.5" font-family="sans-serif" font-size="12" fill="white" dominant-baseline="middle">
        Go — 11.1%
      </text>
    

      <circle cx="7.5" cy="206.25" r="6" fill="#ca6702" />
      <text x="22.5" y="210" font-family="sans-serif" font-size="12" fill="white" dominant-baseline="middle">
        Shell — 2.4%
      </text>
    
  </g>
</svg>
