
<svg width="450" height="300" xmlns="http://www.w3.org/2000/svg" role="img" aria-label="GitHub language stats donut chart">
  <title>GitHub Language Stats Donut Chart for Akhilesh2220</title>
  <g transform="translate(0,0)">
    <path d="M 268.44743458043797 169.24071831592755 A 120 120 0 0 0 157.53486234351763 30.236792588607415 L 153.7674311717588 90.11839629430371 A 60 60 0 0 1 209.22371729021899 159.62035915796378 Z" fill="#005f73" />
<path d="M 141.05448258785594 269.66610931349373 A 120 120 0 0 0 267.00557092586195 176.64012710767514 L 208.50278546293097 163.32006355383757 A 60 60 0 0 1 145.52724129392797 209.83305465674687 Z" fill="#0a9396" />
<path d="M 32.51631574895468 174.4455299554067 A 120 120 0 0 0 133.5582373492139 268.868281896119 L 141.77911867460693 209.4341409480595 A 60 60 0 0 1 91.25815787447735 162.22276497770335 Z" fill="#94d2bd" />
<path d="M 56.527491580051034 74.74782282430249 A 120 120 0 0 0 31.21319543715981 167.0204307157489 L 90.6065977185799 158.51021535787444 A 60 60 0 0 1 103.26374579002552 112.37391141215124 Z" fill="#e9d8a6" />
<path d="M 130.85113712002845 31.537680883733984 A 120 120 0 0 0 61.4370615242283 69.0271284408372 L 105.71853076211414 109.5135642204186 A 60 60 0 0 1 140.42556856001423 90.76884044186698 Z" fill="#ee9b00" />
<path d="M 149.99999999999997 30 A 120 120 0 0 0 138.32723358873804 30.569072161738134 L 144.163616794369 90.28453608086906 A 60 60 0 0 1 150 90 Z" fill="#ca6702" />
    <circle cx="150" cy="150" r="60" fill="#0E1117" />
  </g>
  <g transform="translate(315, 0)">
    
      <circle cx="7.5" cy="93.75" r="6" fill="#005f73" />
      <text x="22.5" y="97.5" font-family="sans-serif" font-size="12" fill="white" dominant-baseline="middle">
        JavaScript — 27.6%
      </text>
    

      <circle cx="7.5" cy="116.25" r="6" fill="#0a9396" />
      <text x="22.5" y="120" font-family="sans-serif" font-size="12" fill="white" dominant-baseline="middle">
        Python — 23.6%
      </text>
    

      <circle cx="7.5" cy="138.75" r="6" fill="#94d2bd" />
      <text x="22.5" y="142.5" font-family="sans-serif" font-size="12" fill="white" dominant-baseline="middle">
        CSS — 20.5%
      </text>
    

      <circle cx="7.5" cy="161.25" r="6" fill="#e9d8a6" />
      <text x="22.5" y="165" font-family="sans-serif" font-size="12" fill="white" dominant-baseline="middle">
        HTML — 14.1%
      </text>
    

      <circle cx="7.5" cy="183.75" r="6" fill="#ee9b00" />
      <text x="22.5" y="187.5" font-family="sans-serif" font-size="12" fill="white" dominant-baseline="middle">
        Go — 11.7%
      </text>
    

      <circle cx="7.5" cy="206.25" r="6" fill="#ca6702" />
      <text x="22.5" y="210" font-family="sans-serif" font-size="12" fill="white" dominant-baseline="middle">
        Shell — 2.6%
      </text>
    
  </g>
</svg>
