
<svg width="450" height="300" xmlns="http://www.w3.org/2000/svg" role="img" aria-label="GitHub language stats donut chart">
  <title>GitHub Language Stats Donut Chart for Akhilesh2220</title>
  <g transform="translate(0,0)">
    <path d="M 268.9305670087633 165.98500018686428 A 120 120 0 0 0 157.53486234351763 30.236792588607415 L 153.7674311717588 90.11839629430371 A 60 60 0 0 1 209.46528350438166 157.99250009343214 Z" fill="#005f73" />
<path d="M 153.13447065149313 269.9590559054835 A 120 120 0 0 0 267.69217823546603 173.42116953081756 L 208.84608911773302 161.71058476540878 A 60 60 0 0 1 151.56723532574657 209.97952795274176 Z" fill="#0a9396" />
<path d="M 36.120724645270286 187.83530949631114 A 120 120 0 0 0 145.5959940471129 269.9191591513505 L 147.79799702355643 209.95957957567526 A 60 60 0 0 1 93.06036232263514 168.91765474815557 Z" fill="#94d2bd" />
<path d="M 66.66155393834771 63.65937567964272 A 120 120 0 0 0 33.96974064211109 180.61011129252933 L 91.98487032105555 165.30505564626466 A 60 60 0 0 1 108.33077696917385 106.82968783982136 Z" fill="#e9d8a6" />
<path d="M 133.51886029602102 31.137171352613663 A 120 120 0 0 0 72.24737598235362 58.59688485412262 L 111.12368799117681 104.2984424270613 A 60 60 0 0 1 141.75943014801052 90.56858567630684 Z" fill="#ee9b00" />
<path d="M 149.99999999999986 30 A 120 120 0 0 0 141.0148408239619 30.336860668870727 L 145.50742041198095 90.16843033443536 A 60 60 0 0 1 149.99999999999994 90 Z" fill="#ca6702" />
    <circle cx="150" cy="150" r="60" fill="#0E1117" />
  </g>
  <g transform="translate(315, 0)">
    
      <circle cx="7.5" cy="93.75" r="6" fill="#005f73" />
      <text x="22.5" y="97.5" font-family="sans-serif" font-size="12" fill="white" dominant-baseline="middle">
        HTML — 27.1%
      </text>
    

      <circle cx="7.5" cy="116.25" r="6" fill="#0a9396" />
      <text x="22.5" y="120" font-family="sans-serif" font-size="12" fill="white" dominant-baseline="middle">
        JavaScript — 22.5%
      </text>
    

      <circle cx="7.5" cy="138.75" r="6" fill="#94d2bd" />
      <text x="22.5" y="142.5" font-family="sans-serif" font-size="12" fill="white" dominant-baseline="middle">
        Python — 20.3%
      </text>
    

      <circle cx="7.5" cy="161.25" r="6" fill="#e9d8a6" />
      <text x="22.5" y="165" font-family="sans-serif" font-size="12" fill="white" dominant-baseline="middle">
        CSS — 17.9%
      </text>
    

      <circle cx="7.5" cy="183.75" r="6" fill="#ee9b00" />
      <text x="22.5" y="187.5" font-family="sans-serif" font-size="12" fill="white" dominant-baseline="middle">
        Go — 10.0%
      </text>
    

      <circle cx="7.5" cy="206.25" r="6" fill="#ca6702" />
      <text x="22.5" y="210" font-family="sans-serif" font-size="12" fill="white" dominant-baseline="middle">
        Shell — 2.2%
      </text>
    
  </g>
</svg>
