
<svg width="450" height="300" xmlns="http://www.w3.org/2000/svg" role="img" aria-label="GitHub language stats donut chart">
  <title>GitHub Language Stats Donut Chart for Akhilesh2220</title>
  <g transform="translate(0,0)">
    <path d="M 269.1873412657312 163.94193967875773 A 120 120 0 0 0 157.53486234351763 30.236792588607415 L 153.7674311717588 90.11839629430371 A 60 60 0 0 1 209.5936706328656 156.97096983937885 Z" fill="#005f73" />
<path d="M 147.65363442143777 269.9770585094156 A 120 120 0 0 0 268.07673063782613 171.39826352492773 L 209.03836531891307 160.69913176246388 A 60 60 0 0 1 148.8268172107189 209.9885292547078 Z" fill="#0a9396" />
<path d="M 34.94018795210121 184.0769665830485 A 120 120 0 0 0 140.12484260252583 269.59298167691577 L 145.0624213012629 209.79649083845788 A 60 60 0 0 1 92.4700939760506 167.03848329152424 Z" fill="#94d2bd" />
<path d="M 67.33137644699899 63.017825505151876 A 120 120 0 0 0 33.02752177253109 176.78505809820675 L 91.51376088626554 163.39252904910336 A 60 60 0 0 1 108.6656882234995 106.50891275257594 Z" fill="#e9d8a6" />
<path d="M 133.68375439065935 31.114424217167226 A 120 120 0 0 0 72.95616001805095 57.99865913566353 L 111.47808000902548 103.99932956783177 A 60 60 0 0 1 141.84187719532966 90.55721210858361 Z" fill="#ee9b00" />
<path d="M 149.99999999999997 30 A 120 120 0 0 0 141.18083784222327 30.324512205569675 L 145.59041892111165 90.16225610278484 A 60 60 0 0 1 150 90 Z" fill="#ca6702" />
    <circle cx="150" cy="150" r="60" fill="#0E1117" />
  </g>
  <g transform="translate(315, 0)">
    
      <circle cx="7.5" cy="93.75" r="6" fill="#005f73" />
      <text x="22.5" y="97.5" font-family="sans-serif" font-size="12" fill="white" dominant-baseline="middle">
        HTML — 26.9%
      </text>
    

      <circle cx="7.5" cy="116.25" r="6" fill="#0a9396" />
      <text x="22.5" y="120" font-family="sans-serif" font-size="12" fill="white" dominant-baseline="middle">
        JavaScript — 23.5%
      </text>
    

      <circle cx="7.5" cy="138.75" r="6" fill="#94d2bd" />
      <text x="22.5" y="142.5" font-family="sans-serif" font-size="12" fill="white" dominant-baseline="middle">
        Python — 20.1%
      </text>
    

      <circle cx="7.5" cy="161.25" r="6" fill="#e9d8a6" />
      <text x="22.5" y="165" font-family="sans-serif" font-size="12" fill="white" dominant-baseline="middle">
        CSS — 17.5%
      </text>
    

      <circle cx="7.5" cy="183.75" r="6" fill="#ee9b00" />
      <text x="22.5" y="187.5" font-family="sans-serif" font-size="12" fill="white" dominant-baseline="middle">
        Go — 9.9%
      </text>
    

      <circle cx="7.5" cy="206.25" r="6" fill="#ca6702" />
      <text x="22.5" y="210" font-family="sans-serif" font-size="12" fill="white" dominant-baseline="middle">
        Shell — 2.2%
      </text>
    
  </g>
</svg>
