
<svg width="450" height="300" xmlns="http://www.w3.org/2000/svg" role="img" aria-label="GitHub language stats donut chart">
  <title>GitHub Language Stats Donut Chart for Akhilesh2220</title>
  <g transform="translate(0,0)">
    <path d="M 265.3794578054784 182.97848869359885 A 120 120 0 0 0 157.53486234351763 30.236792588607415 L 153.7674311717588 90.11839629430371 A 60 60 0 0 1 207.6897289027392 166.4892443467994 Z" fill="#005f73" />
<path d="M 135.42503436831936 269.111587920048 A 120 120 0 0 0 263.0810463630668 190.15814927799767 L 206.5405231815334 170.07907463899883 A 60 60 0 0 1 142.71251718415968 209.555793960024 Z" fill="#0a9396" />
<path d="M 36.498620848136625 188.95429283949272 A 120 120 0 0 0 127.97471624619801 267.96137874560685 L 138.987358123099 208.98068937280343 A 60 60 0 0 1 93.24931042406831 169.47714641974636 Z" fill="#94d2bd" />
<path d="M 59.78905597526904 70.86729135075144 A 120 120 0 0 0 34.27662960768019 181.75061487659664 L 92.1383148038401 165.8753074382983 A 60 60 0 0 1 104.89452798763452 110.43364567537571 Z" fill="#e9d8a6" />
<path d="M 131.74983606195954 31.395904302445572 A 120 120 0 0 0 64.93585055442001 65.35904963258012 L 107.46792527721001 107.67952481629007 A 60 60 0 0 1 140.87491803097976 90.69795215122278 Z" fill="#ee9b00" />
<path d="M 149.99999999999997 30 A 120 120 0 0 0 139.23306137879177 30.484005117611417 L 144.6165306893959 90.24200255880571 A 60 60 0 0 1 150 90 Z" fill="#ca6702" />
    <circle cx="150" cy="150" r="60" fill="transparent" />
  </g>
  <g transform="translate(315, 0)">
    
      <circle cx="7.5" cy="93.75" r="6" fill="#005f73" />
      <text x="22.5" y="97.5" font-family="sans-serif" font-size="12" fill="#333" dominant-baseline="middle">
        HTML — 29.4%
      </text>
    

      <circle cx="7.5" cy="116.25" r="6" fill="#0a9396" />
      <text x="22.5" y="120" font-family="sans-serif" font-size="12" fill="#333" dominant-baseline="middle">
        Python — 22.5%
      </text>
    

      <circle cx="7.5" cy="138.75" r="6" fill="#94d2bd" />
      <text x="22.5" y="142.5" font-family="sans-serif" font-size="12" fill="#333" dominant-baseline="middle">
        CSS — 17.8%
      </text>
    

      <circle cx="7.5" cy="161.25" r="6" fill="#e9d8a6" />
      <text x="22.5" y="165" font-family="sans-serif" font-size="12" fill="#333" dominant-baseline="middle">
        JavaScript — 16.7%
      </text>
    

      <circle cx="7.5" cy="183.75" r="6" fill="#ee9b00" />
      <text x="22.5" y="187.5" font-family="sans-serif" font-size="12" fill="#333" dominant-baseline="middle">
        Go — 11.1%
      </text>
    

      <circle cx="7.5" cy="206.25" r="6" fill="#ca6702" />
      <text x="22.5" y="210" font-family="sans-serif" font-size="12" fill="#333" dominant-baseline="middle">
        Shell — 2.4%
      </text>
    
  </g>
</svg>
