
<svg width="450" height="300" xmlns="http://www.w3.org/2000/svg" role="img" aria-label="GitHub language stats donut chart">
  <title>GitHub Language Stats Donut Chart for Akhilesh2220</title>
  <g transform="translate(0,0)">
    <path d="M 265.3752074751293 182.9933553927283 A 120 120 0 0 0 157.53486234351763 30.236792588607415 L 153.7674311717588 90.11839629430371 A 60 60 0 0 1 207.68760373756464 166.49667769636415 Z" fill="#005f73" />
<path d="M 135.39794979050518 269.10827061828826 A 120 120 0 0 0 263.07587093201164 190.17271976064157 L 206.53793546600582 170.0863598803208 A 60 60 0 0 1 142.6989748952526 209.55413530914413 Z" fill="#0a9396" />
<path d="M 36.48673246118079 188.91963633772102 A 120 120 0 0 0 127.94789340871213 267.9563673350722 L 138.97394670435605 208.9781836675361 A 60 60 0 0 1 93.2433662305904 169.4598181688605 Z" fill="#94d2bd" />
<path d="M 59.78436524801951 70.87263907915765 A 120 120 0 0 0 34.26694077949169 181.71528028352137 L 92.13347038974584 165.85764014176067 A 60 60 0 0 1 104.89218262400976 110.43631953957882 Z" fill="#e9d8a6" />
<path d="M 131.74857428179726 31.396098465299517 A 120 120 0 0 0 64.93083329660428 65.36409227526494 L 107.46541664830214 107.68204613763247 A 60 60 0 0 1 140.87428714089862 90.69804923264977 Z" fill="#ee9b00" />
<path d="M 149.99999999999986 30 A 120 120 0 0 0 139.2317898968778 30.484119669497403 L 144.61589494843892 90.2420598347487 A 60 60 0 0 1 149.99999999999994 90 Z" fill="#ca6702" />
    <circle cx="150" cy="150" r="60" fill="#0E1117" />
  </g>
  <g transform="translate(315, 0)">
    
      <circle cx="7.5" cy="93.75" r="6" fill="#005f73" />
      <text x="22.5" y="97.5" font-family="sans-serif" font-size="12" fill="#333" dominant-baseline="middle">
        HTML — 29.4%
      </text>
    

      <circle cx="7.5" cy="116.25" r="6" fill="#0a9396" />
      <text x="22.5" y="120" font-family="sans-serif" font-size="12" fill="#333" dominant-baseline="middle">
        Python — 22.5%
      </text>
    

      <circle cx="7.5" cy="138.75" r="6" fill="#94d2bd" />
      <text x="22.5" y="142.5" font-family="sans-serif" font-size="12" fill="#333" dominant-baseline="middle">
        CSS — 17.8%
      </text>
    

      <circle cx="7.5" cy="161.25" r="6" fill="#e9d8a6" />
      <text x="22.5" y="165" font-family="sans-serif" font-size="12" fill="#333" dominant-baseline="middle">
        JavaScript — 16.7%
      </text>
    

      <circle cx="7.5" cy="183.75" r="6" fill="#ee9b00" />
      <text x="22.5" y="187.5" font-family="sans-serif" font-size="12" fill="#333" dominant-baseline="middle">
        Go — 11.1%
      </text>
    

      <circle cx="7.5" cy="206.25" r="6" fill="#ca6702" />
      <text x="22.5" y="210" font-family="sans-serif" font-size="12" fill="#333" dominant-baseline="middle">
        Shell — 2.4%
      </text>
    
  </g>
</svg>
