
<svg width="450" height="300" xmlns="http://www.w3.org/2000/svg" role="img" aria-label="GitHub language stats donut chart">
  <title>GitHub Language Stats Donut Chart for Akhilesh2220</title>
  <g transform="translate(0,0)">
    <path d="M 269.8758804736219 155.45648977584528 A 120 120 0 0 0 157.53486234351763 30.236792588607415 L 153.7674311717588 90.11839629430371 A 60 60 0 0 1 209.93794023681096 152.72824488792264 Z" fill="#005f73" />
<path d="M 166.74168299872102 268.82641141753936 A 120 120 0 0 0 269.2967169787157 162.97279145366178 L 209.64835848935786 156.4863957268309 A 60 60 0 0 1 158.37084149936052 209.41320570876968 Z" fill="#0a9396" />
<path d="M 45.02975068806532 208.14848888311957 A 120 120 0 0 0 159.2474750048855 269.6431536112034 L 154.62373750244274 209.8215768056017 A 60 60 0 0 1 97.51487534403266 179.07424444155978 Z" fill="#94d2bd" />
<path d="M 36.02363477924098 112.45818103682038 A 120 120 0 0 0 41.58571167009423 201.4426096336496 L 95.7928558350471 175.72130481682478 A 60 60 0 0 1 93.01181738962049 131.22909051841017 Z" fill="#e9d8a6" />
<path d="M 85.36731218371149 48.89304838122064 A 120 120 0 0 0 38.605811417353564 105.37562605465706 L 94.30290570867678 127.68781302732853 A 60 60 0 0 1 117.68365609185574 99.44652419061032 Z" fill="#ee9b00" />
<path d="M 149.99999999999997 30 A 120 120 0 0 0 91.84340804935204 45.03423980799343 L 120.92170402467602 97.51711990399671 A 60 60 0 0 1 150 90 Z" fill="#ca6702" />
    <circle cx="150" cy="150" r="60" fill="#0E1117" />
  </g>
  <g transform="translate(315, 0)">
    
      <circle cx="7.5" cy="93.75" r="6" fill="#005f73" />
      <text x="22.5" y="97.5" font-family="sans-serif" font-size="12" fill="white" dominant-baseline="middle">
        JavaScript — 25.7%
      </text>
    

      <circle cx="7.5" cy="116.25" r="6" fill="#0a9396" />
      <text x="22.5" y="120" font-family="sans-serif" font-size="12" fill="white" dominant-baseline="middle">
        Python — 22.0%
      </text>
    

      <circle cx="7.5" cy="138.75" r="6" fill="#94d2bd" />
      <text x="22.5" y="142.5" font-family="sans-serif" font-size="12" fill="white" dominant-baseline="middle">
        CSS — 19.2%
      </text>
    

      <circle cx="7.5" cy="161.25" r="6" fill="#e9d8a6" />
      <text x="22.5" y="165" font-family="sans-serif" font-size="12" fill="white" dominant-baseline="middle">
        HTML — 13.1%
      </text>
    

      <circle cx="7.5" cy="183.75" r="6" fill="#ee9b00" />
      <text x="22.5" y="187.5" font-family="sans-serif" font-size="12" fill="white" dominant-baseline="middle">
        Go — 10.9%
      </text>
    

      <circle cx="7.5" cy="206.25" r="6" fill="#ca6702" />
      <text x="22.5" y="210" font-family="sans-serif" font-size="12" fill="white" dominant-baseline="middle">
        Shell — 9.1%
      </text>
    
  </g>
</svg>
